# xmcd CD database file
#
# Track frame offsets:
#	150
#	18867
#	34854
#	50466
#	91958
#	114730
#	142112
#	159779
#	193786
#	213063
#	236720
#	276782
#	315629
#	347841
#
# Disc length: 4791 seconds
#
# Revision: 0
# Processed by: cddbd v1.5.2PL0 Copyright (c) Steve Scherf et al.
# Submitted via: CDex 1.70beta2
#
DISCID=c212b50e
DTITLE=Clifford Brown - Complete Studio Recordings
DYEAR=1956
DGENRE=Jazz
TTITLE0=Gertrude's Bounce
TTITLE1=Step Lightly (Junior's Arrival)
TTITLE2=Powell's Prances
TTITLE3=I'll Remember April
TTITLE4=Time
TTITLE5=The Scene is Clean
TTITLE6=Flossie Lou
TTITLE7=What is This Thing Called Love?
TTITLE8=Love is a Many Splendored Thing
TTITLE9=I Feel A Song Comming On
TTITLE10=Pent-Up Hours
TTITLE11=Valse Hot
TTITLE12=Kiss and Run
TTITLE13=Count Your Blessings
EXTD=YEAR: 1956
EXTT0=
EXTT1=
EXTT2=
EXTT3=
EXTT4=
EXTT5=
EXTT6=
EXTT7=
EXTT8=
EXTT9=
EXTT10=
EXTT11=
EXTT12=
EXTT13=
PLAYORDER=
